<?xml version="1.0" standalone="no"?>
<!DOCTYPE svg PUBLIC "-//W3C//DTD SVG 20010904//EN"
 "http://www.w3.org/TR/2001/REC-SVG-20010904/DTD/svg10.dtd">
<svg version="1.0" xmlns="http://www.w3.org/2000/svg"
 width="891.000000pt" height="200.000000pt" viewBox="0 0 891.000000 200.000000"
 preserveAspectRatio="xMidYMid meet">
<metadata>
Created by potrace 1.16, written by Peter Selinger 2001-2019
</metadata>
<g transform="translate(0.000000,200.000000) scale(0.100000,-0.100000)"
fill="#940CC4" stroke="none">
<path d="M1268 1725 c-80 -53 -151 -69 -313 -69 -82 -1 -240 3 -351 8 -182 8
-205 7 -260 -10 -118 -36 -196 -149 -193 -278 1 -71 11 -100 35 -104 16 -2 25
7 39 38 41 91 149 147 228 119 89 -31 97 -79 73 -407 -22 -286 -21 -395 3
-448 30 -67 101 -104 195 -104 28 0 57 4 65 9 16 10 12 59 -13 204 -38 221
-45 582 -12 661 25 60 52 70 164 60 53 -4 138 -9 188 -9 81 0 96 3 149 30 83
42 116 92 122 182 7 91 -13 143 -54 142 -15 0 -44 -11 -65 -24z"/>
<path d="M2441 1725 c-116 -37 -140 -121 -107 -370 7 -55 13 -101 11 -103 -1
-1 -21 4 -44 13 -242 85 -504 -73 -540 -325 -37 -265 167 -485 431 -467 174
12 316 125 364 292 15 52 16 81 8 235 -10 194 -12 457 -4 625 l5 110 -40 2
c-22 1 -60 -4 -84 -12z m-184 -660 c81 -41 130 -133 116 -218 -9 -56 -60 -127
-112 -154 -116 -60 -262 1 -300 126 -16 56 -14 90 13 147 52 111 173 153 283
99z"/>
<path d="M4852 1731 c-68 -12 -75 -25 -73 -131 1 -50 6 -144 11 -208 5 -64 12
-238 16 -385 8 -304 6 -298 93 -342 97 -49 219 -54 324 -15 69 26 108 60 142
121 40 74 42 173 5 237 -66 115 -234 126 -301 20 -30 -49 -23 -143 15 -193 29
-37 29 -37 5 -30 -37 11 -87 64 -105 112 -25 66 -5 151 50 211 66 73 203 91
308 39 252 -124 225 -512 -46 -655 l-51 -27 74 -3 c231 -9 406 120 442 327 33
184 -78 360 -268 426 -36 13 -60 25 -55 29 5 3 17 33 27 68 32 114 -1 225 -91
307 -85 78 -138 94 -324 97 -85 1 -174 -1 -198 -5z"/>
<path d="M6970 1726 c-9 -11 -9 -37 -1 -108 21 -180 31 -416 31 -745 l0 -332
24 -28 c22 -26 30 -28 93 -28 l68 0 6 220 c4 179 8 227 23 260 68 156 255 164
330 14 25 -51 26 -59 26 -229 0 -196 7 -233 51 -255 34 -18 120 -20 137 -3 15
15 17 390 2 468 -16 82 -54 155 -112 213 -95 95 -215 132 -338 104 -36 -8 -76
-18 -89 -22 -20 -7 -22 -5 -17 13 4 11 8 92 9 179 2 169 -1 181 -51 236 -43
46 -166 73 -192 43z"/>
<path d="M5849 1651 c-58 -36 -84 -87 -84 -162 1 -180 242 -249 342 -97 40 59
40 147 0 206 -55 84 -171 108 -258 53z m140 -91 c10 -5 24 -23 31 -39 35 -86
-93 -142 -136 -60 -35 68 37 136 105 99z"/>
<path d="M3993 1364 c-45 -23 -56 -58 -48 -151 l7 -78 -57 3 c-83 6 -117 -4
-165 -45 -123 -105 -101 -290 42 -364 51 -26 146 -26 197 1 49 24 95 80 108
128 6 22 9 137 7 277 l-3 240 -28 3 c-15 1 -42 -5 -60 -14z m-50 -374 c47 -52
32 -121 -34 -156 -89 -45 -180 71 -118 150 43 54 105 57 152 6z"/>
<path d="M2970 1280 c-116 -25 -232 -116 -286 -225 -27 -56 -29 -68 -29 -175
0 -110 1 -118 33 -182 37 -75 114 -153 186 -186 210 -99 458 -11 554 196 37
79 43 221 14 304 -56 158 -191 261 -360 272 -37 3 -87 1 -112 -4z m151 -202
c122 -42 180 -182 121 -294 -101 -195 -396 -123 -397 97 0 139 145 242 276
197z"/>
<path d="M6460 1276 c-257 -57 -392 -343 -275 -583 120 -243 461 -298 654
-105 53 53 95 126 106 184 9 48 -19 68 -95 68 -62 0 -80 -12 -123 -76 -38 -56
-109 -94 -176 -94 -191 0 -284 243 -140 364 70 60 135 70 230 36 66 -23 111
-15 153 27 38 38 43 69 17 97 -32 34 -124 76 -189 87 -71 11 -93 11 -162 -5z"/>
<path d="M8145 1276 c-234 -57 -369 -309 -289 -539 76 -219 345 -329 559 -229
307 144 313 585 9 736 -90 44 -184 55 -279 32z m173 -202 c47 -19 88 -58 114
-108 29 -57 22 -150 -15 -202 -42 -61 -89 -88 -162 -92 -48 -3 -70 0 -101 16
-76 39 -124 113 -124 192 0 146 155 250 288 194z"/>
<path d="M1519 1240 c-63 -33 -70 -62 -62 -256 6 -160 5 -171 -15 -211 -32
-63 -82 -96 -150 -101 -47 -3 -63 0 -91 20 -59 40 -75 85 -81 233 -4 75 -11
140 -19 153 -22 41 -70 62 -138 62 l-63 0 0 -168 c0 -124 4 -183 16 -223 32
-108 110 -200 213 -247 48 -23 70 -27 151 -27 82 0 103 4 150 26 101 47 173
128 212 237 17 47 21 90 25 253 3 108 3 213 -1 233 -7 36 -7 36 -59 36 -31 -1
-66 -9 -88 -20z"/>
<path d="M5955 1244 c-45 -17 -90 -56 -112 -98 -12 -23 -14 -50 -10 -120 3
-50 11 -174 17 -276 14 -245 27 -270 140 -270 37 0 52 4 59 18 5 9 11 185 13
390 l4 372 -36 -1 c-19 0 -53 -7 -75 -15z"/>
<path d="M4291 1139 c-162 -32 -228 -242 -113 -362 86 -91 247 -90 325 2 32
38 35 66 8 81 -31 16 -66 12 -118 -16 -57 -29 -88 -26 -124 12 -12 13 -21 25
-18 27 2 2 56 14 119 26 140 27 160 38 160 88 0 93 -122 165 -239 142z"/>
</g>
</svg>
